<?xml version="1.0" encoding="UTF-8"?>
<svg id="Capa_1" data-name="Capa 1" xmlns="http://www.w3.org/2000/svg" version="1.1" xmlns:xlink="http://www.w3.org/1999/xlink" viewBox="0 0 1920 741">
  <defs>
    <style>
      .cls-1 {
        fill: url(#Degradado_sin_nombre_10-4);
      }

      .cls-1, .cls-2, .cls-3, .cls-4, .cls-5, .cls-6, .cls-7, .cls-8, .cls-9, .cls-10, .cls-11, .cls-12, .cls-13 {
        stroke-width: 0px;
      }

      .cls-2 {
        fill: url(#Degradado_sin_nombre_10-3);
      }

      .cls-3 {
        fill: url(#Degradado_sin_nombre_10-10);
      }

      .cls-4 {
        fill: url(#Degradado_sin_nombre_10-12);
      }

      .cls-5 {
        fill: url(#Degradado_sin_nombre_10-8);
      }

      .cls-6 {
        fill: #0182c4;
      }

      .cls-7 {
        fill: url(#Degradado_sin_nombre_10-5);
      }

      .cls-8 {
        fill: url(#Degradado_sin_nombre_10-2);
      }

      .cls-9 {
        fill: url(#Degradado_sin_nombre_10-6);
      }

      .cls-10 {
        fill: url(#Degradado_sin_nombre_10-7);
      }

      .cls-11 {
        fill: url(#Degradado_sin_nombre_10-9);
      }

      .cls-12 {
        fill: url(#Degradado_sin_nombre_10-11);
      }

      .cls-13 {
        fill: url(#Degradado_sin_nombre_10);
      }
    </style>
    <linearGradient id="Degradado_sin_nombre_10" data-name="Degradado sin nombre 10" x1="4155.73" y1="495.74" x2="4326.67" y2="495.74" gradientTransform="translate(4447.73) rotate(-180) scale(1 -1)" gradientUnits="userSpaceOnUse">
      <stop offset="0" stop-color="#0182c4"/>
      <stop offset=".17" stop-color="#007fbf"/>
      <stop offset=".35" stop-color="#0076b3"/>
      <stop offset=".54" stop-color="#00699e"/>
      <stop offset=".72" stop-color="#005581"/>
      <stop offset=".91" stop-color="#003d5c"/>
      <stop offset="1" stop-color="#002f47"/>
    </linearGradient>
    <linearGradient id="Degradado_sin_nombre_10-2" data-name="Degradado sin nombre 10" x1="4143.2" y1="272.28" x2="4143.2" y2="442.47" xlink:href="#Degradado_sin_nombre_10"/>
    <linearGradient id="Degradado_sin_nombre_10-3" data-name="Degradado sin nombre 10" x1="4347" y1="201.86" x2="4176.66" y2="201.86" xlink:href="#Degradado_sin_nombre_10"/>
    <linearGradient id="Degradado_sin_nombre_10-4" data-name="Degradado sin nombre 10" x1="4359.34" y1="425.44" x2="4359.34" y2="254.43" xlink:href="#Degradado_sin_nombre_10"/>
    <linearGradient id="Degradado_sin_nombre_10-5" data-name="Degradado sin nombre 10" x1="4398.39" y1="444.41" x2="4398.39" y2="273.95" xlink:href="#Degradado_sin_nombre_10"/>
    <linearGradient id="Degradado_sin_nombre_10-6" data-name="Degradado sin nombre 10" x1="4327.77" y1="240.58" x2="4157.03" y2="240.58" xlink:href="#Degradado_sin_nombre_10"/>
    <linearGradient id="Degradado_sin_nombre_10-7" data-name="Degradado sin nombre 10" x1="4104.39" y1="253.34" x2="4104.39" y2="423.92" xlink:href="#Degradado_sin_nombre_10"/>
    <linearGradient id="Degradado_sin_nombre_10-8" data-name="Degradado sin nombre 10" x1="4174.86" y1="457.16" x2="4345.55" y2="457.16" xlink:href="#Degradado_sin_nombre_10"/>
    <linearGradient id="Degradado_sin_nombre_10-9" data-name="Degradado sin nombre 10" x1="4220.48" y1="147.49" x2="4119.44" y2="248.52" xlink:href="#Degradado_sin_nombre_10"/>
    <linearGradient id="Degradado_sin_nombre_10-10" data-name="Degradado sin nombre 10" x1="4299.18" y1="552.58" x2="4362.69" y2="442.57" xlink:href="#Degradado_sin_nombre_10"/>
    <linearGradient id="Degradado_sin_nombre_10-11" data-name="Degradado sin nombre 10" x1="4452.33" y1="317.31" x2="4351.96" y2="216.94" xlink:href="#Degradado_sin_nombre_10"/>
    <linearGradient id="Degradado_sin_nombre_10-12" data-name="Degradado sin nombre 10" x1="4070.86" y1="361.58" x2="4144.86" y2="489.75" xlink:href="#Degradado_sin_nombre_10"/>
  </defs>
  <g>
    <path class="cls-6" d="M639.77,486.01c-69.07,0-125.3-51.72-125.3-124.95s56.23-124.61,125.3-124.61,124.61,51.37,124.61,124.61-55.54,124.95-124.61,124.95ZM639.77,431.87c38.87,0,64.21-28.11,64.21-70.81s-25.34-70.81-64.21-70.81-64.56,27.42-64.56,70.81,24.99,70.81,64.56,70.81Z"/>
    <path class="cls-6" d="M843.26,486.29c-11.3,0-20.76-2.49-28.39-7.46-7.63-4.97-13.39-11.44-17.29-19.4-3.9-7.96-5.85-16.52-5.85-25.67v-211.16h60.33v200.65c0,3.05.42,5.54,1.27,7.46.85,1.92,2.12,3.36,3.81,4.32,1.69.96,3.84,1.44,6.44,1.44,1.92,0,3.47-.17,4.66-.51,1.19-.34,2.12-.62,2.8-.85v46.44c-3.84,1.36-8.19,2.48-13.05,3.39-4.86.9-9.78,1.36-14.74,1.36Z"/>
    <path class="cls-6" d="M892.45,237.84c0-18.05,14.23-32.28,35.4-32.28s35.06,14.23,35.06,32.28-14.23,31.93-35.06,31.93-35.4-14.23-35.4-31.93ZM898,289.91h59.35v193.68h-59.35v-193.68Z"/>
    <path class="cls-6" d="M1260.36,378.41c0-25.34-14.58-39.22-37.14-39.22s-37.14,13.88-37.14,39.22v105.17h-59.01v-105.17c0-25.34-14.58-39.22-37.14-39.22s-37.14,13.88-37.14,39.22v105.17h-59.35v-193.68h59.35v24.3c11.45-15.62,31.24-26.38,56.58-26.38,29.16,0,52.76,12.84,65.95,36.1,12.84-20.48,37.14-36.1,65.25-36.1,47.9,0,78.79,30.54,78.79,82.61v113.15h-59.01v-105.17Z"/>
    <path class="cls-6" d="M1466.16,287.13c47.55,0,85.39,38.18,85.39,99.27s-37.83,99.96-85.39,99.96c-28.46,0-48.94-13.54-59.7-29.85v119.4h-59.35v-286h59.35v27.42c10.76-17.01,31.24-30.2,59.7-30.2ZM1448.46,338.85c-22.21,0-42.35,17.01-42.35,47.9s20.13,47.9,42.35,47.9,42.69-17.35,42.69-48.24-20.13-47.55-42.69-47.55Z"/>
    <path class="cls-6" d="M1575.83,239.93h59.35v243.66h-59.35v-243.66Z"/>
    <path class="cls-6" d="M1829.9,440.54h-90.94l-14.58,43.04h-62.13l88.16-243.66h68.72l88.16,243.66h-62.82l-14.58-43.04ZM1784.43,305.53l-29.85,89.2h60.05l-30.2-89.2Z"/>
  </g>
  <g>
    <path class="cls-13" d="M121.05,463.39c4.25,6.13,8.14,12.55,12.8,18.35,19.98,24.93,46.24,39.22,77.44,44.85,19.11,3.45,38.11,3.19,56.82-2.45,7.14-2.15,13.93-5.15,19.26-10.59,4-4.08,5.91-8.8,3.66-14.54-1.35-3.44-3.87-5.36-7.42-5.98-6.56-1.15-12.95.3-19.33,1.49-14.83,2.77-29.66,5.4-44.81,5.63-25.88.39-49.86-6.32-71.93-19.62-8.17-4.93-15.72-10.86-23.56-16.34-.71-.5-1.39-1.04-2.08-1.57-.29.26-.58.51-.86.77Z"/>
    <path class="cls-8" d="M271.27,442.47c8.75-4.18,16.71-9.28,23.78-15.67,28.16-25.44,41.44-57.57,42.66-95.08.49-15.07-1.42-29.76-7.71-43.63-2.33-5.14-5.32-9.85-10.04-13.22-7.96-5.68-17.49-1.58-18.18,8.13-.3,4.17.37,8.46.98,12.64,1.88,12.95,4.62,25.81,5.82,38.81,2.83,30.71-4.42,59.21-20.92,85.24-4.68,7.38-10.18,14.23-15.31,21.32-.35.49-.72.97-1.07,1.45Z"/>
    <path class="cls-2" d="M271.07,234.35c-.43-.84-.81-1.71-1.29-2.52-16.24-27.84-39.84-46.53-70.49-56.26-18.92-6-38.31-8.16-58.05-5.48-11.05,1.5-21.97,3.92-31.25,10.57-3.05,2.19-6,5.15-7.75,8.42-4.19,7.83.69,16.07,9.52,15.82,7.44-.21,14.88-1.5,22.24-2.79,15.32-2.7,30.64-5.1,46.28-4.47,20.35.82,39.51,6.03,57.59,15.43,10.87,5.65,20.93,12.46,30.48,20.07.69.55,1.41,1.07,2.11,1.61.2-.14.4-.27.6-.41Z"/>
    <path class="cls-1" d="M121.03,254.43c-5.58,3.76-11.39,7.22-16.7,11.33-28.36,21.87-43.44,51.24-48.02,86.35-2.07,15.91-1.56,31.71,2.82,47.26,1.85,6.56,4.35,12.84,8.49,18.32,2.54,3.37,5.54,6.2,9.79,7.32,6.89,1.83,13.24-2.17,13.49-9.25.2-5.53-.43-11.18-1.39-16.65-2.5-14.32-5.5-28.56-5.83-43.16-.64-27.54,6.14-53.15,20.72-76.52,4.86-7.79,10.61-15.02,15.96-22.5.41-.58.85-1.13,1.27-1.7-.2-.26-.4-.53-.6-.79Z"/>
    <path class="cls-7" d="M82.01,273.95c-3.73,2.33-7.56,4.5-11.16,7-30.71,21.38-47.62,51.15-53.01,87.78-2.67,18.18-2.15,36.22,3.79,53.82,2.24,6.64,5.21,12.92,10.45,17.82,3.28,3.06,7.07,4.63,11.63,3.82,4.61-.82,7.64-3.22,8.14-7.85.47-4.42.33-9.02-.31-13.44-1.72-11.97-4.36-23.83-5.72-35.83-3.97-35.11,4.53-67.2,24.58-96.24,3.83-5.55,7.97-10.9,11.97-16.34-.12-.18-.24-.36-.37-.54Z"/>
    <path class="cls-9" d="M290.7,272.86c-4.54-6.47-8.69-13.27-13.69-19.36-21.15-25.71-48.86-39.71-81.49-44.47-17.37-2.53-34.6-1.89-51.5,3.2-7.23,2.18-14.1,5.19-19.51,10.71-3.24,3.3-5.16,7.21-4.35,11.99.85,5.04,3.99,8.37,9.09,8.47,5.37.1,10.83-.31,16.14-1.22,13.8-2.36,27.52-5.08,41.56-5.78,23.21-1.16,45.26,3.25,66.21,13.32,12.2,5.86,23.43,13.19,33.91,21.71.9.73,1.84,1.42,2.76,2.12.3-.23.6-.46.89-.7Z"/>
    <path class="cls-10" d="M310.41,423.92c2.45-1.41,4.97-2.72,7.35-4.25,33.26-21.36,51.71-52.15,57.3-90.87,2.5-17.32,2.09-34.59-3.19-51.5-2.01-6.42-4.64-12.55-9.06-17.73-3.21-3.76-6.99-6.55-12.32-6.21-5.27.34-9.13,3.3-9.64,8.52-.42,4.34-.18,8.85.46,13.18,1.69,11.52,4.18,22.93,5.58,34.48,4.65,38.18-5.55,72.41-28.34,103.12-2.73,3.67-5.6,7.24-8.41,10.85.09.13.18.27.27.4Z"/>
    <path class="cls-5" d="M102.18,424.85c4.42,6.33,8.46,12.97,13.33,18.94,21.26,26.03,49.14,40.17,82.12,44.92,17.4,2.5,34.6,1.79,51.49-3.31,6.96-2.1,13.54-5.08,18.89-10.23,4.64-4.47,6.04-10.02,3.86-14.97-1.34-3.03-3.57-5.29-6.85-5.5-4.47-.28-9.04-.34-13.45.27-12.25,1.7-24.39,4.15-36.66,5.67-19.63,2.43-38.93.46-57.78-5.66-19.34-6.28-36.44-16.53-52.14-29.28-.62-.51-1.26-.99-1.9-1.48-.3.22-.61.43-.91.65Z"/>
    <path class="cls-11" d="M209.27,166.15c45.17,15.56,77.32,45.05,96.02,89.46,2.39-1.27,4.75-2.47,7.08-3.76,8.91-4.96,17.81-9.95,26.72-14.91,3.32-1.85,3.51-2.25,1.9-5.71-5.37-11.51-13.41-20.99-22.99-29.11-26.12-22.13-56.4-34.28-90.5-36.81-5.97-.44-12-.06-18-.06-.07.3-.15.6-.22.9Z"/>
    <path class="cls-3" d="M183.55,531.46c-45.3-15.51-77.53-45.08-96.06-89.59-5.72,3.17-11.07,6.13-16.41,9.11-5.84,3.25-11.67,6.52-17.51,9.77-3.38,1.88-3.41,1.97-1.81,5.38,5.35,11.41,13.21,20.93,22.72,29.01,27.62,23.45,59.6,35.93,95.83,37.35,4.32.17,8.65.02,12.98.02.09-.35.18-.7.26-1.05Z"/>
    <path class="cls-12" d="M13.6,335.12c2.26-5.49,4.33-11.07,6.81-16.46,14.67-31.89,37.52-56.01,68.91-71.9,3.78-1.91,7.66-3.67,11.59-5.24,2.1-.84,2.3-1.71,1.24-3.58-6.12-10.75-12.23-21.5-18.15-32.36-1.36-2.5-2.68-2.5-4.92-1.42-8.9,4.27-16.67,10.09-23.59,17.06-17.16,17.28-28.59,37.98-35.9,61.04-5.17,16.32-7.69,33.02-6.67,50.18.05.88.14,1.75.21,2.63.15.02.31.04.46.06Z"/>
    <path class="cls-4" d="M379.59,363.15c-16.23,44.62-45.75,76.34-90.19,94.34,2.27,4.12,4.41,8.05,6.6,11.95,4.24,7.56,8.6,15.04,12.69,22.68,1.31,2.44,2.54,2.66,4.89,1.53,12.95-6.26,23.38-15.57,32.35-26.61,13.21-16.26,22.4-34.66,28.3-54.7,4.4-14.91,6.44-30.16,5.7-45.73-.06-1.16-.23-2.31-.35-3.46Z"/>
  </g>
</svg>